<?xml version="1.0" encoding="utf-8"?>
<!-- Generator: Adobe Illustrator 18.0.0, SVG Export Plug-In . SVG Version: 6.00 Build 0)  -->
<!DOCTYPE svg PUBLIC "-//W3C//DTD SVG 1.1//EN" "http://www.w3.org/Graphics/SVG/1.1/DTD/svg11.dtd">
<svg version="1.1" id="Layer_1" xmlns="http://www.w3.org/2000/svg" xmlns:xlink="http://www.w3.org/1999/xlink" x="0px" y="0px"
	 viewBox="0 0 595.3 841.9" enable-background="new 0 0 595.3 841.9" xml:space="preserve">
<path d="M518.8,392.7L347.9,221.7c-15.6-15.6-40.9-15.6-56.6,0s-15.6,40.9,0,56.6L394,380.9H71c-22.1,0-40,17.9-40,40s17.9,40,40,40
	h323L291.4,563.6c-15.6,15.6-15.6,40.9,0,56.6c7.8,7.8,18,11.7,28.3,11.7c10.2,0,20.5-3.9,28.3-11.7l170.9-170.9
	c2-2,3.7-4.1,5.1-6.3c4.4-6.7,6.6-14.3,6.6-22C530.6,410.7,526.6,400.5,518.8,392.7z"/>
</svg>
