<?xml version="1.0" encoding="utf-8"?>
<!-- Generator: Adobe Illustrator 18.0.0, SVG Export Plug-In . SVG Version: 6.00 Build 0)  -->
<!DOCTYPE svg PUBLIC "-//W3C//DTD SVG 1.1//EN" "http://www.w3.org/Graphics/SVG/1.1/DTD/svg11.dtd">
<svg version="1.1" id="Layer_1" xmlns="http://www.w3.org/2000/svg" xmlns:xlink="http://www.w3.org/1999/xlink" x="0px" y="0px"
	 viewBox="0 0 595.3 841.9" enable-background="new 0 0 595.3 841.9" xml:space="preserve">
<path d="M469,272.9c-18.8-11.7-43.4-5.9-55.1,12.9L269.6,518L134.4,382.7c-15.6-15.6-40.9-15.6-56.6,0s-15.6,40.9,0,56.6
	l170.9,170.9c0,0,0.1,0.1,0.1,0.1c0.4,0.4,0.8,0.8,1.2,1.1c0.1,0.1,0.3,0.2,0.4,0.4c0.3,0.3,0.7,0.6,1,0.9c0.2,0.2,0.5,0.4,0.7,0.6
	c0.2,0.2,0.5,0.4,0.7,0.6c0.4,0.3,0.7,0.5,1.1,0.8c0.1,0.1,0.3,0.2,0.4,0.3c0.5,0.3,0.9,0.6,1.4,0.9c0,0,0.1,0.1,0.1,0.1
	c0,0,0,0,0.1,0c1.6,1,3.2,1.8,4.8,2.6c0.1,0,0.2,0.1,0.3,0.1c0.7,0.3,1.5,0.6,2.2,0.9c0.1,0,0.2,0.1,0.3,0.1
	c0.8,0.3,1.5,0.5,2.3,0.7c0.3,0.1,0.6,0.2,0.8,0.2c0.5,0.1,1,0.3,1.5,0.4c0.3,0.1,0.7,0.1,1,0.2c0.7,0.1,1.4,0.3,2.1,0.4
	c0.4,0.1,0.7,0.1,1.1,0.1c0.4,0,0.8,0.1,1.3,0.1c0.4,0,0.8,0.1,1.1,0.1c0.5,0,1,0,1.5,0.1c0.2,0,0.5,0,0.7,0c0.2,0,0.4,0,0.7,0
	c0.5,0,1,0,1.5,0c0.3,0,0.6,0,0.9-0.1c0.5,0,1-0.1,1.5-0.1c0.2,0,0.5-0.1,0.7-0.1c0.7-0.1,1.4-0.2,2-0.3c0.1,0,0.1,0,0.2,0
	c0.8-0.2,1.6-0.3,2.4-0.5c0,0,0,0,0.1,0c0.7-0.2,1.5-0.4,2.2-0.6c0.1,0,0.2-0.1,0.3-0.1c0.7-0.2,1.4-0.5,2.2-0.8c0,0,0.1,0,0.1,0
	c1.5-0.6,2.9-1.3,4.4-2c0.1-0.1,0.3-0.2,0.4-0.2c0.5-0.3,1-0.6,1.5-0.9c0.2-0.1,0.4-0.3,0.7-0.4c0.4-0.3,0.8-0.5,1.2-0.8
	c0.2-0.2,0.5-0.3,0.7-0.5c0.4-0.3,0.9-0.7,1.3-1c0.5-0.4,0.9-0.8,1.4-1.2c0.2-0.2,0.4-0.4,0.7-0.6c0.3-0.3,0.7-0.6,1-0.9
	c0.1-0.1,0.2-0.2,0.4-0.3c0.1-0.1,0.2-0.2,0.3-0.4c0.3-0.3,0.6-0.6,0.9-0.9c0.3-0.4,0.7-0.7,1-1.1c0.2-0.2,0.3-0.4,0.5-0.6
	c0.5-0.6,1-1.3,1.5-1.9c0-0.1,0.1-0.1,0.1-0.2c0.5-0.7,0.9-1.3,1.3-2c0,0,0-0.1,0.1-0.1l170.9-275
	C493.5,309.2,487.8,284.6,469,272.9z"/>
</svg>
