<?xml version="1.0" encoding="utf-8"?>
<!-- Generator: Adobe Illustrator 18.0.0, SVG Export Plug-In . SVG Version: 6.00 Build 0)  -->
<!DOCTYPE svg PUBLIC "-//W3C//DTD SVG 1.1//EN" "http://www.w3.org/Graphics/SVG/1.1/DTD/svg11.dtd">
<svg version="1.1" id="Layer_1" xmlns="http://www.w3.org/2000/svg" xmlns:xlink="http://www.w3.org/1999/xlink" x="0px" y="0px"
	 viewBox="0 0 200 200" enable-background="new 0 0 200 200" xml:space="preserve">
<g>
	<circle cx="100" cy="45.3" r="40"/>
</g>
<g>
	<path d="M128,73.8c-8.8,0.1-18.2,0.3-28,0.3s-19.2-0.2-28-0.3c7.2,7.1,17.1,11.4,28,11.4S120.8,80.9,128,73.8z"/>
	<path d="M139.7,73.9c-8.9,12.3-23.4,20.3-39.7,20.3s-30.8-8-39.7-20.3C30.5,74.6,10,80.1,10,110c0,41.9,40.3,75.9,90,75.9
		s90-34,90-75.9C190,80.1,169.5,74.6,139.7,73.9z"/>
</g>
</svg>
